<?xml version="1.0" encoding="utf-8"?>
<!-- Generator: Adobe Illustrator 25.2.1, SVG Export Plug-In . SVG Version: 6.00 Build 0)  -->
<svg version="1.1" xmlns="http://www.w3.org/2000/svg" xmlns:xlink="http://www.w3.org/1999/xlink" x="0px" y="0px"
	 viewBox="0 0 100 100" style="enable-background:new 0 0 100 100;" xml:space="preserve">
<style type="text/css">
	.st0{fill:#98C1D9;}
	.st1{opacity:0.11;fill:#FFFFFF;}
	.st2{fill:#FFFFFF;stroke:#000000;stroke-miterlimit:10;}
	.st3{fill:#FFFFFF;stroke:#000000;}
	.st4{fill:#F2D7B8;stroke:#000000;}
	.st5{fill:#565254;stroke:#000000;}
</style>
<g id="Background">
	<g>
		<ellipse class="st0" cx="50.08" cy="50.18" rx="49.7" ry="49.67"/>
	</g>
</g>
<g id="Layer_4">
	<g>
		<g>
			<g>
				<path class="st1" d="M2.84,34.79l0.35-0.96l6.81,2.52l-0.35,0.96L2.84,34.79z M7.8,33.27c-0.34-0.13-0.64-0.14-0.9-0.03
					c-0.25,0.11-0.44,0.32-0.56,0.65c-0.12,0.31-0.12,0.58-0.02,0.81c0.1,0.23,0.3,0.4,0.59,0.51l-0.97-0.25
					c-0.23-0.26-0.38-0.53-0.45-0.83s-0.05-0.6,0.06-0.89c0.2-0.53,0.52-0.87,0.97-1.03c0.45-0.16,0.99-0.12,1.62,0.11l2.95,1.09
					l-0.35,0.96L7.8,33.27z"/>
				<path class="st1" d="M10.3,30.38c0.32,0.17,0.61,0.22,0.87,0.15c0.26-0.07,0.47-0.26,0.63-0.55c0.15-0.29,0.2-0.56,0.13-0.81
					c-0.07-0.24-0.25-0.44-0.54-0.59l0.99,0.44c0.18,0.21,0.29,0.47,0.33,0.76c0.04,0.29-0.02,0.59-0.18,0.9
					c-0.27,0.51-0.63,0.81-1.1,0.92c-0.47,0.1-1,0-1.59-0.31l-2.79-1.47l0.47-0.9L10.3,30.38z M8.49,27.05l0.47-0.9l4.59,2.41
					l-0.47,0.9L8.49,27.05z"/>
				<path class="st1" d="M8.3,23.27l0.58-0.83l5.95,4.17l-0.58,0.83L8.3,23.27z M14.97,26.13c-0.26,0.11-0.54,0.13-0.84,0.06
					l-0.85-0.68c0.18,0.13,0.36,0.2,0.54,0.23c0.17,0.02,0.34,0,0.49-0.08c0.15-0.08,0.29-0.2,0.42-0.38
					c0.19-0.28,0.26-0.55,0.2-0.82c-0.06-0.27-0.25-0.51-0.55-0.72l-0.92-0.65c-0.31-0.22-0.6-0.31-0.88-0.28
					c-0.28,0.03-0.51,0.18-0.71,0.46c-0.12,0.18-0.2,0.35-0.22,0.52s0.01,0.33,0.09,0.49c0.08,0.15,0.21,0.29,0.39,0.42l-0.88-0.49
					c-0.16-0.3-0.23-0.6-0.22-0.91c0.01-0.3,0.1-0.58,0.28-0.83c0.21-0.3,0.46-0.51,0.74-0.63c0.28-0.12,0.6-0.14,0.93-0.07
					c0.34,0.07,0.69,0.23,1.05,0.49l0.92,0.65c0.36,0.25,0.63,0.53,0.8,0.82c0.18,0.29,0.25,0.6,0.23,0.91
					c-0.02,0.32-0.14,0.63-0.35,0.94C15.46,25.84,15.23,26.03,14.97,26.13z"/>
				<path class="st1" d="M14.08,15.9l0.73-0.71l5.06,5.21l-0.73,0.71L14.08,15.9z M19.21,16.66c-0.26-0.26-0.52-0.4-0.8-0.41
					c-0.28-0.01-0.54,0.1-0.78,0.34c-0.24,0.23-0.36,0.47-0.37,0.72s0.1,0.49,0.32,0.72l-0.77-0.64c-0.1-0.33-0.11-0.65-0.05-0.95
					c0.07-0.3,0.21-0.56,0.44-0.78c0.4-0.39,0.84-0.56,1.32-0.51c0.48,0.05,0.95,0.32,1.42,0.8l2.19,2.26l-0.73,0.71L19.21,16.66z"
					/>
				<path class="st1" d="M22.73,15.12c0.22,0.29,0.46,0.46,0.73,0.51c0.27,0.05,0.53-0.03,0.8-0.23c0.27-0.2,0.42-0.42,0.46-0.68
					s-0.04-0.51-0.23-0.77l0.7,0.83c0.07,0.27,0.06,0.55-0.03,0.83c-0.09,0.28-0.27,0.53-0.55,0.74c-0.46,0.34-0.92,0.46-1.39,0.35
					s-0.91-0.43-1.31-0.97l-1.89-2.52l0.82-0.61L22.73,15.12z M22.53,11.33l0.81-0.61l3.1,4.15l-0.81,0.61L22.53,11.33z"/>
				<path class="st1" d="M23.98,7.84l0.89-0.5l3.58,6.32l-0.89,0.5L23.98,7.84z M28.77,13.3c-0.29-0.02-0.55-0.12-0.78-0.31
					l-0.47-0.98c0.11,0.19,0.24,0.34,0.38,0.44c0.15,0.1,0.31,0.14,0.48,0.14c0.17,0,0.35-0.06,0.54-0.16
					c0.29-0.17,0.47-0.38,0.53-0.65c0.06-0.27,0-0.57-0.19-0.89L28.71,9.9c-0.19-0.33-0.41-0.54-0.68-0.63s-0.54-0.05-0.84,0.11
					C27,9.49,26.86,9.61,26.77,9.76c-0.09,0.14-0.14,0.3-0.13,0.48c0.01,0.17,0.06,0.36,0.17,0.54l-0.58-0.82
					c-0.01-0.34,0.05-0.65,0.19-0.91s0.34-0.48,0.61-0.63c0.32-0.18,0.63-0.26,0.94-0.25c0.31,0.01,0.6,0.13,0.88,0.33
					c0.27,0.21,0.52,0.51,0.74,0.89l0.56,0.98c0.22,0.38,0.34,0.74,0.37,1.09s-0.03,0.65-0.18,0.93c-0.15,0.28-0.39,0.51-0.72,0.69
					C29.33,13.24,29.05,13.32,28.77,13.3z"/>
				<path class="st1" d="M32.36,3.68l0.97-0.32l2.31,6.89l-0.97,0.32L32.36,3.68z M36.66,6.59c-0.12-0.35-0.3-0.59-0.54-0.71
					s-0.53-0.14-0.85-0.03c-0.32,0.11-0.53,0.27-0.65,0.49c-0.12,0.22-0.13,0.48-0.02,0.78l-0.42-0.91
					c0.05-0.34,0.18-0.63,0.37-0.87c0.19-0.24,0.44-0.41,0.73-0.51c0.53-0.18,1-0.14,1.41,0.11s0.72,0.7,0.93,1.33l1,2.98
					l-0.97,0.32L36.66,6.59z"/>
				<path class="st1" d="M40.51,6.72c0.07,0.36,0.21,0.61,0.43,0.77c0.22,0.16,0.49,0.21,0.82,0.14c0.33-0.06,0.56-0.2,0.71-0.41
					s0.19-0.47,0.12-0.79l0.28,1.05C42.82,7.75,42.7,8,42.49,8.21c-0.2,0.22-0.47,0.36-0.82,0.43c-0.56,0.11-1.03,0.01-1.41-0.29
					c-0.38-0.3-0.63-0.78-0.76-1.44L38.9,3.82l1-0.2L40.51,6.72z M41.97,3.22l1-0.2l1,5.09l-1,0.2L41.97,3.22z"/>
				<path class="st1" d="M44.77,0.7l1.02-0.07l0.49,7.25l-1.02,0.07L44.77,0.7z M46.72,7.69c-0.25-0.14-0.44-0.34-0.57-0.62l0-1.09
					c0.02,0.22,0.07,0.41,0.16,0.56c0.09,0.15,0.21,0.26,0.37,0.34c0.16,0.07,0.34,0.1,0.56,0.09c0.34-0.02,0.59-0.14,0.76-0.36
					c0.17-0.22,0.24-0.51,0.22-0.88l-0.08-1.12C48.11,4.23,48,3.94,47.8,3.74c-0.2-0.2-0.47-0.28-0.8-0.26
					c-0.22,0.01-0.4,0.07-0.54,0.16c-0.15,0.09-0.25,0.21-0.32,0.37s-0.1,0.35-0.08,0.56l-0.17-0.99c0.14-0.31,0.32-0.56,0.57-0.74
					c0.24-0.18,0.52-0.28,0.83-0.3c0.37-0.02,0.68,0.04,0.96,0.18c0.27,0.15,0.49,0.37,0.64,0.68c0.16,0.31,0.25,0.68,0.28,1.13
					l0.08,1.13c0.03,0.44-0.01,0.82-0.13,1.14s-0.31,0.57-0.56,0.76c-0.26,0.18-0.57,0.29-0.95,0.31
					C47.26,7.89,46.97,7.83,46.72,7.69z"/>
				<path class="st1" d="M54.12,0.57l1.01,0.12l-0.88,7.21l-1.01-0.12L54.12,0.57z M56.75,5.04c0.04-0.36-0.02-0.66-0.18-0.88
					c-0.17-0.22-0.42-0.35-0.76-0.39c-0.33-0.04-0.6,0.01-0.8,0.16c-0.2,0.15-0.32,0.38-0.36,0.7l0.02-1
					c0.2-0.28,0.43-0.5,0.71-0.63c0.28-0.14,0.57-0.18,0.88-0.15c0.56,0.07,0.97,0.3,1.23,0.71c0.26,0.4,0.35,0.94,0.27,1.6
					l-0.38,3.12l-1.01-0.12L56.75,5.04z"/>
				<path class="st1" d="M60.16,6.81c-0.09,0.35-0.07,0.65,0.06,0.88s0.36,0.4,0.68,0.48c0.32,0.08,0.59,0.06,0.82-0.06
					c0.22-0.13,0.37-0.35,0.45-0.66l-0.2,1.07c-0.17,0.22-0.39,0.39-0.66,0.5c-0.28,0.11-0.58,0.12-0.92,0.03
					c-0.55-0.14-0.94-0.43-1.15-0.86c-0.21-0.43-0.23-0.97-0.07-1.62l0.78-3.05l0.99,0.25L60.16,6.81z M62.98,4.28l0.98,0.25
					l-1.28,5.02L61.7,9.3L62.98,4.28z"/>
				<path class="st1" d="M66.62,3.22l0.95,0.38l-2.68,6.75l-0.95-0.38L66.62,3.22z M65.37,10.37c-0.17-0.23-0.25-0.5-0.25-0.81
					l0.46-0.98c-0.08,0.21-0.12,0.4-0.1,0.57c0.02,0.17,0.08,0.33,0.19,0.46s0.27,0.24,0.47,0.32c0.31,0.12,0.59,0.13,0.84,0
					c0.25-0.12,0.44-0.36,0.58-0.7l0.42-1.04c0.14-0.35,0.16-0.66,0.07-0.92c-0.09-0.26-0.3-0.46-0.61-0.58
					c-0.2-0.08-0.39-0.11-0.56-0.09c-0.17,0.02-0.32,0.08-0.45,0.2c-0.13,0.11-0.24,0.27-0.32,0.47l0.27-0.97
					c0.26-0.22,0.53-0.37,0.83-0.43c0.3-0.06,0.59-0.03,0.88,0.08c0.34,0.14,0.6,0.33,0.78,0.58c0.18,0.25,0.28,0.55,0.29,0.89
					c0.01,0.34-0.07,0.72-0.23,1.14l-0.42,1.05c-0.16,0.41-0.37,0.73-0.61,0.97c-0.25,0.24-0.52,0.39-0.84,0.44
					c-0.31,0.05-0.64,0.01-0.99-0.13C65.77,10.78,65.54,10.6,65.37,10.37z"/>
				<path class="st1" d="M75.12,7.15l0.86,0.55l-3.91,6.12l-0.86-0.55L75.12,7.15z M75.55,12.31c0.2-0.31,0.27-0.6,0.22-0.87
					c-0.05-0.27-0.22-0.5-0.51-0.68c-0.28-0.18-0.54-0.25-0.79-0.2c-0.25,0.05-0.46,0.21-0.62,0.47l0.45-0.9
					c0.3-0.17,0.6-0.26,0.91-0.26c0.31,0,0.59,0.08,0.86,0.25c0.47,0.3,0.74,0.69,0.8,1.17c0.06,0.48-0.09,1-0.45,1.56l-1.7,2.65
					l-0.86-0.55L75.55,12.31z"/>
				<path class="st1" d="M77.87,15.4c-0.23,0.28-0.34,0.55-0.33,0.82s0.15,0.51,0.41,0.73c0.25,0.21,0.51,0.31,0.76,0.29
					s0.49-0.15,0.7-0.4l-0.64,0.88c-0.25,0.13-0.52,0.18-0.81,0.16s-0.58-0.14-0.84-0.37c-0.44-0.37-0.66-0.79-0.66-1.27
					c0-0.48,0.21-0.98,0.64-1.49l2.03-2.42l0.78,0.65L77.87,15.4z M81.51,14.33l0.78,0.65l-3.33,3.97l-0.78-0.65L81.51,14.33z"/>
				<path class="st1" d="M85.24,14.95l0.69,0.75l-5.33,4.93l-0.69-0.75L85.24,14.95z M81.03,20.86c-0.05-0.28-0.01-0.56,0.12-0.83
					l0.84-0.68c-0.16,0.15-0.28,0.31-0.34,0.47c-0.06,0.17-0.07,0.33-0.03,0.5c0.04,0.17,0.14,0.33,0.28,0.49
					c0.23,0.25,0.48,0.37,0.76,0.37c0.28,0,0.55-0.13,0.82-0.38l0.83-0.76c0.28-0.26,0.43-0.53,0.46-0.8
					c0.03-0.28-0.07-0.54-0.3-0.79c-0.15-0.16-0.3-0.27-0.46-0.32c-0.16-0.06-0.33-0.06-0.49-0.02s-0.33,0.14-0.49,0.29l0.66-0.76
					c0.33-0.09,0.64-0.1,0.93-0.03c0.29,0.07,0.54,0.22,0.75,0.45c0.25,0.27,0.4,0.56,0.46,0.86c0.06,0.3,0.01,0.61-0.12,0.93
					s-0.37,0.62-0.7,0.93l-0.83,0.77c-0.32,0.3-0.65,0.5-0.97,0.61c-0.33,0.11-0.64,0.12-0.94,0.04c-0.3-0.09-0.58-0.27-0.84-0.54
					C81.21,21.4,81.08,21.14,81.03,20.86z"/>
				<path class="st1" d="M91.19,22.11l0.54,0.86l-6.16,3.84l-0.54-0.86L91.19,22.11z M89.36,26.96c0.31-0.19,0.5-0.42,0.57-0.69
					s0.01-0.55-0.17-0.84c-0.18-0.28-0.39-0.46-0.63-0.52c-0.24-0.06-0.5-0.01-0.77,0.16l0.79-0.62c0.34-0.03,0.66,0.03,0.94,0.16
					s0.5,0.33,0.67,0.59c0.3,0.48,0.37,0.94,0.22,1.4s-0.51,0.86-1.08,1.22l-2.67,1.67l-0.54-0.86L89.36,26.96z"/>
				<path class="st1" d="M90.13,30.74c-0.33,0.15-0.55,0.35-0.65,0.6c-0.1,0.25-0.09,0.53,0.05,0.83c0.14,0.3,0.33,0.5,0.56,0.59
					c0.24,0.09,0.5,0.07,0.8-0.06l-0.96,0.51c-0.28,0.01-0.54-0.06-0.8-0.21s-0.46-0.38-0.6-0.7c-0.24-0.52-0.25-1-0.05-1.44
					c0.21-0.44,0.61-0.79,1.22-1.07l2.87-1.31l0.42,0.93L90.13,30.74z M93.87,31.35l0.42,0.92l-4.72,2.15l-0.42-0.92L93.87,31.35z"
					/>
				<path class="st1" d="M96.98,33.53l0.3,0.97l-6.94,2.14l-0.3-0.97L96.98,33.53z M90.63,37.04c0.08-0.27,0.23-0.51,0.47-0.7
					l1.06-0.25c-0.21,0.07-0.38,0.16-0.51,0.28c-0.13,0.12-0.21,0.27-0.24,0.44c-0.04,0.17-0.02,0.36,0.04,0.56
					c0.1,0.32,0.27,0.54,0.52,0.66c0.25,0.12,0.55,0.12,0.91,0.01l1.07-0.33c0.36-0.11,0.62-0.29,0.76-0.53
					c0.15-0.24,0.17-0.52,0.07-0.84c-0.06-0.21-0.16-0.37-0.28-0.49s-0.27-0.2-0.44-0.23c-0.17-0.03-0.36-0.01-0.57,0.05l0.92-0.39
					c0.33,0.06,0.62,0.19,0.85,0.38c0.23,0.19,0.39,0.44,0.49,0.73c0.11,0.35,0.12,0.67,0.04,0.97c-0.08,0.3-0.25,0.56-0.51,0.78
					c-0.26,0.22-0.61,0.4-1.03,0.53l-1.08,0.33c-0.42,0.13-0.8,0.17-1.14,0.13c-0.34-0.04-0.63-0.17-0.87-0.38
					c-0.24-0.21-0.41-0.49-0.52-0.85C90.56,37.6,90.55,37.31,90.63,37.04z"/>
				<path class="st1" d="M99.25,42.6l0.11,1.01l-7.22,0.79l-0.11-1.01L99.25,42.6z M95.49,46.18c0.36-0.04,0.63-0.16,0.81-0.38
					c0.18-0.21,0.25-0.49,0.21-0.83c-0.04-0.33-0.15-0.58-0.34-0.74c-0.19-0.16-0.44-0.23-0.76-0.19l0.98-0.21
					c0.32,0.13,0.58,0.31,0.78,0.55s0.31,0.51,0.34,0.82c0.06,0.56-0.08,1.01-0.41,1.36c-0.33,0.35-0.83,0.56-1.5,0.63l-3.13,0.34
					l-0.11-1.01L95.49,46.18z"/>
				<path class="st1" d="M94.54,49.9c-0.36-0.01-0.65,0.08-0.85,0.26c-0.2,0.18-0.31,0.44-0.31,0.78c-0.01,0.33,0.08,0.59,0.25,0.78
					c0.17,0.19,0.42,0.28,0.75,0.29l-1.08,0.05c-0.25-0.11-0.47-0.29-0.63-0.53c-0.17-0.24-0.25-0.54-0.24-0.89
					c0.01-0.57,0.2-1.01,0.58-1.32c0.37-0.3,0.9-0.45,1.56-0.44l3.15,0.06l-0.02,1.02L94.54,49.9z M97.66,52.06l-0.02,1.01
					l-5.18-0.1l0.02-1.01L97.66,52.06z"/>
				<path class="st1" d="M92.28,55.8c0.19-0.21,0.43-0.36,0.73-0.43l1.06,0.23c-0.22-0.03-0.42-0.02-0.58,0.04
					c-0.17,0.06-0.3,0.15-0.41,0.29s-0.17,0.31-0.2,0.53c-0.05,0.33,0.01,0.61,0.19,0.82c0.17,0.21,0.45,0.35,0.82,0.4l1.11,0.16
					c0.38,0.06,0.68,0.01,0.92-0.15s0.38-0.39,0.42-0.73c0.03-0.21,0.02-0.4-0.04-0.56c-0.06-0.16-0.16-0.29-0.3-0.39
					s-0.32-0.17-0.53-0.2l1,0.04c0.28,0.2,0.48,0.44,0.6,0.71s0.17,0.56,0.12,0.87c-0.05,0.36-0.18,0.66-0.38,0.9
					s-0.47,0.4-0.8,0.49s-0.72,0.1-1.16,0.04l-1.12-0.16c-0.43-0.06-0.8-0.19-1.09-0.37c-0.29-0.18-0.5-0.42-0.62-0.71
					s-0.16-0.62-0.1-0.99C91.97,56.29,92.09,56.02,92.28,55.8z M99.52,55.38l-0.15,1.01l-7.19-1.06l0.15-1.01L99.52,55.38z"/>
				<path class="st1" d="M92.73,66.14c0.35,0.12,0.64,0.13,0.9,0.01c0.25-0.11,0.43-0.33,0.55-0.66c0.11-0.31,0.11-0.59,0.01-0.81
					c-0.1-0.23-0.3-0.39-0.6-0.5l0.98,0.23c0.24,0.25,0.39,0.53,0.46,0.83c0.07,0.3,0.06,0.6-0.05,0.89
					c-0.19,0.53-0.5,0.88-0.95,1.05s-0.99,0.14-1.63-0.08l-2.97-1.04l0.34-0.96L92.73,66.14z M97.66,64.53l-0.34,0.96l-6.85-2.4
					l0.34-0.96L97.66,64.53z"/>
				<path class="st1" d="M92.12,72.41l-0.46,0.91l-4.63-2.34l0.46-0.91L92.12,72.41z M90.26,69.11c-0.32-0.16-0.62-0.21-0.88-0.13
					c-0.26,0.08-0.47,0.26-0.62,0.56c-0.15,0.3-0.19,0.57-0.11,0.81s0.26,0.44,0.55,0.58l-1-0.43c-0.18-0.21-0.29-0.46-0.34-0.75
					c-0.05-0.29,0.01-0.59,0.17-0.91c0.26-0.51,0.62-0.82,1.09-0.93c0.47-0.11,1-0.02,1.6,0.28l2.81,1.42l-0.46,0.91L90.26,69.11z"
					/>
				<path class="st1" d="M85.68,73.41c0.26-0.11,0.54-0.14,0.84-0.07L87.38,74c-0.18-0.12-0.36-0.2-0.54-0.22
					c-0.17-0.02-0.34,0.01-0.49,0.09c-0.15,0.08-0.29,0.21-0.41,0.39c-0.19,0.28-0.25,0.55-0.18,0.82c0.07,0.27,0.25,0.51,0.56,0.72
					l0.93,0.63c0.31,0.21,0.61,0.3,0.89,0.27c0.28-0.04,0.51-0.19,0.7-0.47c0.12-0.18,0.19-0.35,0.21-0.52
					c0.02-0.17-0.01-0.33-0.1-0.49c-0.08-0.15-0.21-0.29-0.39-0.41l0.89,0.47c0.16,0.3,0.24,0.6,0.24,0.9c0,0.3-0.09,0.58-0.27,0.84
					c-0.21,0.3-0.45,0.52-0.73,0.64c-0.28,0.12-0.59,0.15-0.93,0.09c-0.34-0.06-0.69-0.22-1.06-0.47l-0.93-0.63
					c-0.36-0.25-0.64-0.51-0.82-0.81c-0.18-0.29-0.26-0.59-0.25-0.91c0.01-0.32,0.13-0.63,0.34-0.94
					C85.19,73.71,85.41,73.52,85.68,73.41z M92.39,76.16l-0.57,0.84l-6.02-4.07l0.57-0.84L92.39,76.16z"/>
				<path class="st1" d="M81.6,82.94c0.26,0.26,0.53,0.39,0.8,0.4s0.53-0.11,0.78-0.35c0.24-0.24,0.36-0.48,0.36-0.73
					c0-0.25-0.1-0.49-0.33-0.71l0.78,0.63c0.1,0.33,0.12,0.65,0.06,0.95c-0.06,0.3-0.21,0.56-0.43,0.78
					c-0.4,0.4-0.83,0.58-1.31,0.54c-0.48-0.04-0.96-0.3-1.43-0.77l-2.23-2.22l0.72-0.72L81.6,82.94z M86.74,83.62l-0.72,0.72
					l-5.14-5.13l0.72-0.72L86.74,83.62z"/>
				<path class="st1" d="M78.35,88.33l-0.8,0.62l-3.17-4.1l0.8-0.62L78.35,88.33z M78.09,84.55c-0.22-0.29-0.47-0.45-0.73-0.5
					c-0.27-0.04-0.53,0.04-0.8,0.24c-0.26,0.2-0.41,0.43-0.45,0.68s0.04,0.51,0.24,0.76l-0.72-0.81c-0.07-0.27-0.07-0.54,0.02-0.83
					c0.08-0.28,0.26-0.53,0.54-0.75c0.45-0.35,0.92-0.47,1.39-0.37s0.91,0.42,1.32,0.95l1.93,2.49l-0.81,0.62L78.09,84.55z"/>
				<path class="st1" d="M72.09,86.47c0.29,0.01,0.55,0.11,0.79,0.3l0.49,0.97c-0.11-0.19-0.24-0.34-0.39-0.43
					c-0.15-0.09-0.31-0.14-0.48-0.13s-0.35,0.06-0.54,0.17c-0.29,0.17-0.46,0.39-0.52,0.66s0.01,0.57,0.2,0.89l0.57,0.97
					c0.19,0.33,0.42,0.54,0.69,0.62s0.54,0.05,0.83-0.12c0.19-0.11,0.33-0.24,0.42-0.38c0.09-0.15,0.13-0.31,0.12-0.48
					s-0.07-0.35-0.18-0.54l0.6,0.81c0.02,0.34-0.04,0.65-0.17,0.92s-0.34,0.48-0.6,0.64c-0.32,0.19-0.63,0.27-0.94,0.26
					s-0.6-0.12-0.88-0.32c-0.28-0.2-0.53-0.5-0.76-0.88l-0.57-0.97c-0.22-0.38-0.35-0.74-0.39-1.08s0.02-0.65,0.17-0.93
					c0.15-0.28,0.39-0.51,0.71-0.7C71.52,86.53,71.81,86.45,72.09,86.47z M76.97,91.84l-0.88,0.52l-3.68-6.26l0.88-0.52L76.97,91.84
					z"/>
				<path class="st1" d="M64.32,93.3c0.12,0.34,0.31,0.58,0.55,0.71c0.25,0.12,0.53,0.13,0.85,0.02c0.31-0.11,0.53-0.28,0.64-0.5
					s0.12-0.49,0.01-0.78l0.43,0.91c-0.05,0.34-0.17,0.64-0.35,0.88c-0.19,0.25-0.43,0.42-0.72,0.52c-0.53,0.19-1,0.16-1.42-0.08
					s-0.73-0.68-0.96-1.32l-1.05-2.97l0.96-0.34L64.32,93.3z M68.67,96.14l-0.96,0.34l-2.43-6.85l0.96-0.34L68.67,96.14z"/>
				<path class="st1" d="M59.08,96.76l-0.99,0.21L57,91.9l0.99-0.21L59.08,96.76z M60.48,93.24c-0.08-0.36-0.23-0.61-0.45-0.77
					c-0.22-0.15-0.5-0.2-0.83-0.13c-0.33,0.07-0.56,0.21-0.7,0.42c-0.14,0.21-0.18,0.48-0.11,0.79l-0.29-1.04
					c0.05-0.27,0.17-0.52,0.37-0.74c0.2-0.22,0.47-0.37,0.81-0.44c0.56-0.12,1.03-0.03,1.41,0.26c0.38,0.29,0.64,0.77,0.78,1.42
					l0.66,3.08l-1,0.21L60.48,93.24z"/>
				<path class="st1" d="M54.2,92.37c0.25,0.13,0.45,0.34,0.58,0.61l0.02,1.09c-0.02-0.22-0.07-0.41-0.17-0.56s-0.22-0.26-0.38-0.33
					s-0.34-0.1-0.56-0.08c-0.33,0.03-0.59,0.15-0.75,0.37c-0.17,0.22-0.24,0.51-0.21,0.89l0.09,1.12c0.03,0.38,0.15,0.66,0.35,0.86
					c0.2,0.19,0.47,0.28,0.8,0.25c0.22-0.02,0.4-0.07,0.54-0.17c0.14-0.09,0.25-0.22,0.32-0.38c0.07-0.16,0.09-0.35,0.07-0.57
					l0.19,0.99c-0.13,0.31-0.32,0.56-0.55,0.75s-0.51,0.29-0.82,0.32c-0.36,0.03-0.68-0.03-0.96-0.17
					c-0.27-0.14-0.49-0.37-0.66-0.67c-0.16-0.3-0.26-0.68-0.3-1.12l-0.09-1.12c-0.04-0.44,0-0.82,0.12-1.14
					c0.11-0.32,0.3-0.58,0.55-0.77c0.25-0.19,0.57-0.3,0.95-0.33C53.67,92.18,53.95,92.24,54.2,92.37z M56.27,99.33l-1.02,0.08
					l-0.6-7.24l1.02-0.08L56.27,99.33z"/>
				<path class="st1" d="M44.25,95.18c-0.04,0.36,0.03,0.66,0.19,0.88c0.17,0.22,0.42,0.34,0.76,0.38c0.33,0.04,0.6-0.02,0.79-0.18
					c0.2-0.15,0.31-0.39,0.35-0.7v1c-0.19,0.29-0.42,0.5-0.7,0.64c-0.27,0.14-0.57,0.19-0.88,0.16c-0.56-0.06-0.97-0.29-1.24-0.68
					s-0.37-0.93-0.3-1.6l0.33-3.13l1.01,0.11L44.25,95.18z M46.95,99.61l-1.01-0.11l0.76-7.22l1.01,0.11L46.95,99.61z"/>
				<path class="st1" d="M38.01,96.05l-0.99-0.24l1.2-5.04L39.22,91L38.01,96.05z M40.79,93.47c0.08-0.35,0.06-0.65-0.07-0.88
					s-0.36-0.39-0.69-0.47c-0.32-0.08-0.6-0.05-0.81,0.08c-0.22,0.13-0.37,0.35-0.44,0.67l0.18-1.07c0.16-0.22,0.38-0.39,0.65-0.51
					c0.27-0.11,0.58-0.13,0.92-0.05c0.56,0.13,0.94,0.41,1.16,0.84c0.22,0.43,0.25,0.97,0.09,1.62l-0.73,3.07l-0.99-0.24
					L40.79,93.47z"/>
				<path class="st1" d="M35.55,90c0.17,0.23,0.26,0.5,0.26,0.8l-0.45,0.99c0.08-0.21,0.11-0.4,0.09-0.58
					c-0.02-0.17-0.09-0.33-0.2-0.46c-0.11-0.13-0.27-0.24-0.47-0.31c-0.31-0.12-0.59-0.12-0.84,0.01c-0.25,0.13-0.43,0.36-0.57,0.71
					l-0.4,1.05c-0.13,0.36-0.15,0.66-0.05,0.93s0.31,0.45,0.62,0.57c0.2,0.08,0.39,0.1,0.56,0.08c0.17-0.02,0.32-0.09,0.45-0.21
					c0.13-0.12,0.23-0.28,0.31-0.48l-0.26,0.97c-0.25,0.23-0.53,0.37-0.82,0.44c-0.29,0.07-0.59,0.04-0.88-0.07
					c-0.34-0.13-0.61-0.32-0.79-0.56c-0.19-0.25-0.29-0.54-0.3-0.89c-0.02-0.34,0.06-0.73,0.21-1.14l0.4-1.06
					c0.16-0.41,0.35-0.74,0.6-0.98c0.24-0.24,0.52-0.39,0.83-0.45c0.31-0.06,0.64-0.02,0.99,0.11C35.14,89.6,35.38,89.77,35.55,90z
					 M34.42,97.17l-0.95-0.36l2.57-6.79l0.95,0.36L34.42,97.17z"/>
				<path class="st1" d="M25.33,88.23c-0.19,0.31-0.26,0.6-0.2,0.87c0.06,0.27,0.23,0.5,0.52,0.67c0.28,0.17,0.55,0.24,0.79,0.18
					c0.25-0.05,0.45-0.21,0.62-0.48l-0.44,0.91c-0.3,0.18-0.6,0.27-0.91,0.28c-0.31,0.01-0.6-0.07-0.86-0.23
					c-0.48-0.29-0.75-0.68-0.82-1.16c-0.07-0.47,0.07-1,0.43-1.57l1.65-2.68l0.87,0.53L25.33,88.23z M25.85,93.39l-0.87-0.54
					l3.81-6.18l0.87,0.54L25.85,93.39z"/>
				<path class="st1" d="M19.34,86.3l-0.79-0.64l3.27-4.03l0.79,0.64L19.34,86.3z M22.96,85.18c0.23-0.28,0.33-0.56,0.31-0.83
					c-0.02-0.27-0.16-0.51-0.42-0.72c-0.26-0.21-0.51-0.3-0.77-0.28c-0.25,0.02-0.48,0.16-0.69,0.41l0.63-0.89
					c0.24-0.13,0.51-0.19,0.81-0.17c0.3,0.02,0.58,0.13,0.85,0.35c0.44,0.36,0.67,0.78,0.68,1.26c0.01,0.48-0.2,0.98-0.62,1.5
					l-1.99,2.45l-0.79-0.64L22.96,85.18z"/>
				<path class="st1" d="M15.62,85.78l-0.7-0.74l5.25-5.02l0.7,0.74L15.62,85.78z M19.73,79.79c0.05,0.28,0.02,0.56-0.11,0.84
					l-0.83,0.7c0.16-0.15,0.27-0.31,0.33-0.48c0.06-0.17,0.06-0.33,0.02-0.5c-0.04-0.17-0.14-0.33-0.29-0.48
					c-0.23-0.24-0.49-0.36-0.76-0.35c-0.28,0.01-0.55,0.14-0.82,0.4l-0.81,0.78c-0.27,0.26-0.42,0.53-0.45,0.81s0.08,0.54,0.31,0.78
					c0.15,0.16,0.31,0.26,0.47,0.32c0.16,0.05,0.33,0.06,0.49,0.01c0.17-0.05,0.33-0.15,0.49-0.3l-0.65,0.77
					c-0.33,0.1-0.64,0.11-0.93,0.04c-0.29-0.07-0.55-0.22-0.76-0.44c-0.25-0.26-0.41-0.55-0.47-0.85c-0.06-0.3-0.03-0.61,0.11-0.93
					s0.36-0.63,0.69-0.94l0.82-0.78c0.32-0.3,0.64-0.51,0.96-0.63c0.32-0.12,0.64-0.13,0.94-0.05s0.59,0.26,0.85,0.53
					C19.54,79.26,19.68,79.51,19.73,79.79z"/>
				<path class="st1" d="M9.53,78.69l-0.55-0.86l6.1-3.94l0.55,0.86L9.53,78.69z M11.28,73.81c-0.31,0.2-0.49,0.43-0.56,0.7
					c-0.06,0.27,0,0.55,0.18,0.83c0.18,0.28,0.39,0.45,0.64,0.51c0.24,0.06,0.5,0,0.76-0.17l-0.78,0.63
					c-0.34,0.03-0.66-0.01-0.94-0.14c-0.28-0.12-0.51-0.32-0.68-0.58c-0.31-0.47-0.39-0.94-0.25-1.4c0.14-0.46,0.49-0.87,1.06-1.24
					l2.64-1.71l0.55,0.86L11.28,73.81z"/>
				<path class="st1" d="M6.7,69.5l-0.44-0.92l4.68-2.23l0.44,0.92L6.7,69.5z M10.45,70.05c0.33-0.16,0.54-0.36,0.64-0.61
					c0.1-0.25,0.08-0.53-0.07-0.83c-0.14-0.3-0.33-0.5-0.57-0.58c-0.24-0.09-0.5-0.06-0.8,0.08l0.95-0.53
					c0.28-0.01,0.55,0.05,0.81,0.19c0.26,0.14,0.46,0.37,0.61,0.69c0.25,0.52,0.27,1,0.07,1.44s-0.6,0.8-1.2,1.09l-2.85,1.36
					L7.61,71.4L10.45,70.05z"/>
				<path class="st1" d="M3.56,67.39l-0.32-0.97l6.9-2.26l0.32,0.97L3.56,67.39z M9.85,63.77c-0.07,0.28-0.23,0.51-0.46,0.71
					l-1.05,0.27c0.21-0.07,0.38-0.17,0.5-0.29c0.12-0.12,0.2-0.27,0.23-0.44c0.03-0.17,0.01-0.36-0.05-0.56
					c-0.1-0.32-0.28-0.54-0.54-0.65c-0.25-0.11-0.56-0.11-0.91,0.01l-1.07,0.35c-0.36,0.12-0.61,0.3-0.75,0.54
					c-0.14,0.24-0.16,0.52-0.06,0.84c0.07,0.21,0.16,0.37,0.29,0.49s0.27,0.19,0.44,0.22C6.6,65.28,6.79,65.26,7,65.19L6.08,65.6
					c-0.34-0.05-0.62-0.18-0.86-0.37c-0.24-0.19-0.4-0.43-0.5-0.72c-0.11-0.35-0.13-0.67-0.06-0.97c0.08-0.3,0.24-0.56,0.5-0.79
					c0.26-0.23,0.6-0.41,1.02-0.55l1.07-0.35c0.42-0.14,0.8-0.19,1.14-0.15c0.34,0.04,0.63,0.16,0.87,0.36s0.42,0.49,0.54,0.84
					C9.91,63.2,9.92,63.5,9.85,63.77z"/>
				<path class="st1" d="M1.13,58.34L1,57.33l7.21-0.91l0.13,1.01L1.13,58.34z M4.83,54.7c-0.36,0.04-0.63,0.17-0.81,0.39
					c-0.17,0.21-0.24,0.49-0.2,0.83c0.04,0.33,0.16,0.57,0.35,0.73c0.19,0.16,0.45,0.22,0.76,0.18l-0.98,0.23
					c-0.32-0.12-0.59-0.3-0.78-0.53c-0.2-0.23-0.32-0.51-0.36-0.82c-0.07-0.56,0.06-1.01,0.38-1.36c0.33-0.35,0.82-0.57,1.49-0.65
					l3.12-0.39l0.13,1.01L4.83,54.7z"/>
				<path class="st1" d="M5.7,50.92c0.36,0.01,0.65-0.08,0.85-0.26s0.3-0.44,0.31-0.78c0.01-0.33-0.08-0.59-0.25-0.78
					c-0.17-0.19-0.42-0.28-0.75-0.29l1.08-0.05c0.25,0.11,0.47,0.29,0.64,0.53c0.17,0.24,0.25,0.54,0.25,0.89
					c-0.01,0.57-0.2,1.01-0.57,1.32c-0.37,0.3-0.89,0.45-1.56,0.44l-3.15-0.05l0.02-1.02L5.7,50.92z M2.58,48.76l0.02-1.01
					l5.18,0.08l-0.02,1.01L2.58,48.76z"/>
				<path class="st1" d="M0.65,45.56l0.13-1.01l7.2,0.94L7.85,46.5L0.65,45.56z M7.89,45.02c-0.18,0.22-0.42,0.36-0.72,0.44
					L6.1,45.25c0.22,0.03,0.41,0.01,0.58-0.05s0.3-0.16,0.4-0.3c0.1-0.14,0.17-0.32,0.2-0.53c0.04-0.33-0.02-0.6-0.2-0.81
					c-0.18-0.21-0.45-0.34-0.82-0.39l-1.11-0.15c-0.38-0.05-0.68,0-0.91,0.16s-0.37,0.4-0.41,0.73c-0.03,0.21-0.01,0.4,0.05,0.56
					s0.16,0.29,0.3,0.39c0.14,0.1,0.32,0.16,0.54,0.19l-1-0.02c-0.28-0.19-0.49-0.43-0.62-0.7c-0.13-0.27-0.18-0.56-0.14-0.87
					c0.05-0.36,0.17-0.66,0.37-0.9c0.2-0.24,0.46-0.4,0.79-0.5c0.33-0.09,0.72-0.11,1.16-0.06l1.12,0.15
					c0.44,0.06,0.8,0.17,1.09,0.35c0.29,0.18,0.5,0.41,0.63,0.7c0.13,0.29,0.17,0.62,0.12,0.99C8.18,44.53,8.07,44.8,7.89,45.02z"/>
			</g>
		</g>
	</g>
</g>
<g id="Layer_2">
	<g>
		<path class="st2" d="M63.65,49.9c0.07,0.23,0.05,0.48-0.08,0.69c-1.28,2.2-8.26,13.09-22.09,14.37
			c-13.77,1.28-22.66-8.09-23.88-9.42c-6.76-7.37-7.39-15.98-7.36-19.75c0.01-0.67,0.03-1.25,0.04-1.35c0,0,0.44-7.89,5.37-14.86
			c5.86-8.28,16.8-13.12,27.3-12.21c5.12,0.44,9.1,2.16,11.49,3.43c0.22,0.12,0.37,0.32,0.43,0.57c0.82,3.67,1.65,7.35,2.47,11.02
			c0.18,0.83-0.8,1.39-1.42,0.81c-2.5-2.33-6.89-5.49-13.08-6.33c-2.12-0.29-8.35-1.13-14.31,2.7c-5.74,3.69-7.49,9.3-7.93,10.81
			c-2.02,6.84-0.63,16.23,6.43,21.52c6.66,4.99,14.58,3.53,15.86,3.26c7.29-1.55,13.29-7.16,16.16-14.72
			c0.29-0.77,1.38-0.76,1.63,0.03L63.65,49.9z"/>
	</g>
</g>
<g id="Layer_3">
	<g>
		<path class="st3" d="M37.91,31.07c4.1,3.42,6.92,4.09,11.42,6.75c0.12,0.07,0.22,0.19,0.27,0.32l8.14,23.18
			c0.41,1.15,0.82,2.3,1.24,3.46c1.2,3.32,2.42,6.59,3.66,9.82c0.2,0.53,0.95,0.52,1.15-0.01c2.48-6.8,4.94-13.68,7.39-20.62
			c2.29-6.49,4.52-12.94,6.71-19.35c0.04-0.13,0.13-0.24,0.24-0.31c0.3-0.2,7.78-3.27,10.74-7.09c0.98-1.27,1.24-2.33,1.39-2.27
			c0.44,0.17-2.22,8.04-3.07,10.55c-4.04,11.92-5.99,16.55-8.89,23.89c-3.56,9-8.25,20.26-14.24,33.24
			c-0.22,0.47-0.89,0.49-1.11,0.02c-2.26-4.68-14.46-32.1-18.6-41.7c-6.24-14.46-9.68-21.92-8.92-22.33
			C35.7,28.47,36.11,29.57,37.91,31.07z"/>
	</g>
	<path class="st4" d="M63.32,94.78l9.39-22.13c-0.64-0.61-4.47-4.13-10.22-3.78c-4.72,0.29-7.75,3-8.57,3.78
		c0.07,0.16,0.13,0.31,0.2,0.47L63.32,94.78z"/>
	<path class="st5" d="M63.35,94.23l4.19-9.86c-0.29-0.27-1.99-1.84-4.56-1.69c-2.1,0.13-3.45,1.34-3.82,1.69
		c0.03,0.07,0.06,0.14,0.09,0.21L63.35,94.23z"/>
</g>
</svg>
