<?xml version="1.0" encoding="utf-8"?>
<!-- Generator: Adobe Illustrator 25.2.1, SVG Export Plug-In . SVG Version: 6.00 Build 0)  -->
<svg version="1.1" xmlns="http://www.w3.org/2000/svg" xmlns:xlink="http://www.w3.org/1999/xlink" x="0px" y="0px"
	 viewBox="0 0 1331 1080" style="enable-background:new 0 0 1331 1080;" xml:space="preserve">
<style type="text/css">
	.st0{fill:none;stroke:#000000;stroke-width:9;stroke-miterlimit:10;}
	.st1{font-family:'SourceSansPro-Light';}
	.st2{font-size:72px;}
	.st3{letter-spacing:7;}
	.st4{fill:none;stroke:#000000;stroke-width:2;}
	.st5{font-family:'SourceSansPro-SemiBoldItalic';}
	.st6{font-family:'SourceSansPro-SemiBold';}
	.st7{font-size:60px;}
	.st8{letter-spacing:6;}
	.st9{fill:#BFCFE8;stroke:#6D84F2;}
	.st10{font-family:'SourceSansPro-Regular';}
</style>
<g id="Layer_1">
</g>
<g id="Layer_2">
</g>
<g id="Layer_3">
	<path class="st0" d="M112,1099.08"/>
	<path class="st0" d="M667.43,417.79c43.41-72.46,59.06-87.65,72.48-86.57c17.27,1.39,18.99,28.73,39.27,31.13
		c19.49,2.3,36.76-21,67.47-70.03c61.02-97.44,91.63-163.23,105.22-158.02c2.86,1.1,1.52-4.9,96.19,154.69
		c45.42,76.57,53.9,93.45,68.48,92.26c22.65-1.84,31.74-44.92,51.36-42.24c10.64,1.45,15.17,15.1,28.2,43.35
		c17.84,38.68,2.52-1.7,61.43,112.27c21.38,41.38,29.96,59.38,39.27,57.8c13.23-2.24,10.34-40.99,23.41-44.22
		c3.93-0.97,8.05,1.56,12.8,7.28"/>
	<path class="st0" d="M52,1087.08c-1.35-18.37,45.13-18.99,120.34-87.58c22.97-20.95,59.26-57.95,166.16-237
		c59.89-100.33,95.97-168.23,129.9-162c24.66,4.52,33.5,45.48,59.41,44.15c17.46-0.9,29.89-20.07,39.27-36.68
		c18.3-32.42,33.53-58.79,46.35-80.18"/>
	<path class="st0" d="M-617.5,648.5"/>
	<text transform="matrix(1 0 0 1 405.3545 491.8228)"><tspan x="0" y="0" class="st1 st2 st3">“Reach</tspan><tspan x="248.76" y="0" class="st4 st1 st2 st3"> </tspan><tspan x="270.36" y="0" class="st5 st2 st3">higher” </tspan></text>
	<text transform="matrix(1 0 0 1 822.3291 572.6074)"><tspan x="0" y="0" class="st6 st7 st8">- </tspan><tspan x="43.32" y="0" class="st9 st10 st7 st8">CvHub</tspan></text>
</g>
</svg>
