<svg xmlns="http://www.w3.org/2000/svg" viewBox="0 0 223.13 226.36"><defs><style>.cls-1{fill:#d89aa8;}</style></defs><g id="Layer_2" data-name="Layer 2"><g id="Layer_1-2" data-name="Layer 1"><path class="cls-1" d="M222.61,111.07c6.71,73.67-52.29,124-123.82,114C-33.6,206.24-33.31,17.09,102,.2c4.25.16,25.18-.94,29,.79,23.91,2.25,45.38,12.84,62.74,29.23a6.07,6.07,0,0,1,.12,8.85L168.14,63.79C102.07.09,3.88,83.91,59.14,157.9c28.33,38.62,98.8,35.38,116.94-10.76a6.07,6.07,0,0,0-5.59-8.38c-61.08-2.76-57.27,12.85-56.66-31.23a6.05,6.05,0,0,1,6-6h90C220.12,101.24,219.54,102.08,222.61,111.07Z"/></g></g></svg>