<svg xmlns="http://www.w3.org/2000/svg" viewBox="0 0 314.25 305.72"><defs><style>.cls-1{fill:none;stroke:#000;stroke-miterlimit:10;stroke-width:7px;}</style></defs><g id="Layer_2" data-name="Layer 2"><g id="Layer_1-2" data-name="Layer 1"><rect class="cls-1" x="3.5" y="52.52" width="82.53" height="249.7" rx="19.15"/><rect class="cls-1" x="86.03" y="3.5" width="82.53" height="298.72" rx="19.15"/><rect class="cls-1" x="210.74" y="65.39" width="64.81" height="234.58" rx="19.15" transform="translate(-50.17 102.32) rotate(-21.6)"/><line class="cls-1" x1="3.5" y1="71.67" x2="86.03" y2="71.67"/><line class="cls-1" x1="3.5" y1="90.31" x2="86.03" y2="90.31"/><line class="cls-1" x1="3.5" y1="261.54" x2="86.03" y2="261.54"/><line class="cls-1" x1="3.5" y1="280.18" x2="86.03" y2="280.18"/><rect class="cls-1" x="14.65" y="104.27" width="59.23" height="25.87"/><line class="cls-1" x1="86.03" y1="270.86" x2="168.57" y2="270.86"/><line class="cls-1" x1="86.03" y1="242.9" x2="168.57" y2="242.9"/><line class="cls-1" x1="86.03" y1="73.89" x2="168.57" y2="73.89"/><line class="cls-1" x1="86.03" y1="45.93" x2="168.57" y2="45.93"/><line class="cls-1" x1="236.49" y1="254.61" x2="295.55" y2="227.72"/><line class="cls-1" x1="243.47" y1="272.25" x2="303.09" y2="246.78"/><line class="cls-1" x1="185.66" y1="121.83" x2="244.72" y2="94.94"/><line class="cls-1" x1="192.64" y1="139.47" x2="252.27" y2="113.99"/><line class="cls-1" x1="210.82" y1="152.86" x2="245.54" y2="137.29"/></g></g></svg>