<svg xmlns="http://www.w3.org/2000/svg" viewBox="0 0 227.72 167.26"><g id="Layer_2" data-name="Layer 2"><g id="Layer_1-2" data-name="Layer 1"><path d="M227.28,7.5a10.28,10.28,0,0,0-2.42-4.2A10.44,10.44,0,0,0,217.24,0H10.48A10.44,10.44,0,0,0,2.86,3.3,10.3,10.3,0,0,0,.43,7.5a10.42,10.42,0,0,0-.43,3v146.3a10.5,10.5,0,0,0,10.48,10.48H217.24a10.5,10.5,0,0,0,10.48-10.48V10.48A10.09,10.09,0,0,0,227.28,7.5Zm-10,155H10.48a5.74,5.74,0,0,1-5.75-5.75V10.48a5.77,5.77,0,0,1,5.75-5.75H217.24A5.77,5.77,0,0,1,223,10.48v146.3a5.77,5.77,0,0,1-5.75,5.75Z"/><path d="M224.86,3.3,221.4,6.52,142.66,79.68l-3.47,3.23-16.11,15c-5.52,5.13-12.93,5.13-18.44,0l-16.11-15-3.47-3.23L6.32,6.52,2.86,3.3A10.3,10.3,0,0,0,.43,7.5l4.3,4L81.58,82.91l3.48,3.23,16.35,15.21a17.73,17.73,0,0,0,24.89,0l16.36-15.21,3.48-3.23L223,11.5l4.29-4A10.28,10.28,0,0,0,224.86,3.3Z"/><path d="M223,154.33,146.14,82.91l-3.48-3.23-3.47,3.23,3.47,3.23,78.74,73.17.65.61,2.81,2.61a10.32,10.32,0,0,0,2.42-4.21ZM81.58,82.91,4.73,154.33l-4.3,4a10.34,10.34,0,0,0,2.43,4.21l2.8-2.61.66-.61L85.06,86.14l3.47-3.23-3.47-3.23Z"/></g></g></svg>