<svg xmlns="http://www.w3.org/2000/svg" viewBox="0 0 227.72 167.26"><defs><style>.cls-1{fill:none;}</style></defs><g id="Layer_2" data-name="Layer 2"><g id="Layer_1-2" data-name="Layer 1"><path class="cls-1" d="M227.28,7.5a10.28,10.28,0,0,0-2.42-4.2A10.44,10.44,0,0,0,217.24,0H10.48A10.44,10.44,0,0,0,2.86,3.3,10.3,10.3,0,0,0,.43,7.5a10.42,10.42,0,0,0-.43,3v146.3a10.5,10.5,0,0,0,10.48,10.48H217.24a10.5,10.5,0,0,0,10.48-10.48V10.48A10.09,10.09,0,0,0,227.28,7.5Zm-10,155H10.48a5.74,5.74,0,0,1-5.75-5.75V10.48a5.77,5.77,0,0,1,5.75-5.75H217.24A5.77,5.77,0,0,1,223,10.48v146.3a5.77,5.77,0,0,1-5.75,5.75Z"/><path d="M154.75,165.63H73a15,15,0,0,1-15-15V16.6a15,15,0,0,1,15-15h81.78a15,15,0,0,1,15,15V150.66A15,15,0,0,1,154.75,165.63ZM73,6.39A10.22,10.22,0,0,0,62.76,16.6V150.66A10.22,10.22,0,0,0,73,160.87h81.78A10.21,10.21,0,0,0,165,150.66V16.6a10.21,10.21,0,0,0-10.2-10.21Z"/><path d="M151,146.81h-22.6v-4.76H151a1.27,1.27,0,0,0,1.27-1.27V20.19A1.27,1.27,0,0,0,151,18.92H76.67a1.26,1.26,0,0,0-1.26,1.27V140.78a1.26,1.26,0,0,0,1.26,1.27h22.6v4.76H76.67a6,6,0,0,1-6-6V20.19a6,6,0,0,1,6-6H151a6,6,0,0,1,6,6V140.78A6,6,0,0,1,151,146.81Z"/><path d="M125.71,156.06H102a4.64,4.64,0,0,1-4.64-4.64V136.68A4.64,4.64,0,0,1,102,132h23.7a4.64,4.64,0,0,1,4.64,4.64v14.74A4.64,4.64,0,0,1,125.71,156.06ZM102,135.85a.83.83,0,0,0-.83.83v14.74a.83.83,0,0,0,.83.83h23.7a.83.83,0,0,0,.83-.83V136.68a.83.83,0,0,0-.83-.83Z"/></g></g></svg>