<svg id="Layer_1" data-name="Layer 1" xmlns="http://www.w3.org/2000/svg" viewBox="0 0 329.72 282.58"><defs><style>.cls-1{fill:none;stroke:#000;stroke-miterlimit:10;stroke-width:7px;}</style></defs><g id="Layer_2" data-name="Layer 2"><g id="Layer_1-2" data-name="Layer 1-2"><path class="cls-1" d="M280.17,162.57l-227-.94c-6.6,0-9.87-2.9-12-8.76L3.5,44c0-1.51,1.67-2.73,3.74-2.73H322.47c2.07,0,3.75,1.23,3.75,2.73L292.17,153.81C289.63,159.18,286.77,162.57,280.17,162.57Z"/><path class="cls-1" d="M326.22,46.05V267.32a11.93,11.93,0,0,1-12,11.76H15.5a11.93,11.93,0,0,1-12-11.76V46.05"/><rect class="cls-1" x="151.52" y="156.39" width="26.68" height="12.34" rx="3.83"/><path class="cls-1" d="M123.1,41.29V15.5a12,12,0,0,1,12-12h59.52a12,12,0,0,1,12,12V41.29"/></g></g></svg>