<svg xmlns="http://www.w3.org/2000/svg" viewBox="0 0 151.79 280.25"><defs><style>.cls-1{fill:#98c0d9;}</style></defs><g id="Layer_2" data-name="Layer 2"><g id="Layer_1-2" data-name="Layer 1"><path class="cls-1" d="M42.35,158.34v7.2q0,52.76,0,105.52c0,7.63,1.56,9.17,9,9.18q20.25,0,40.5,0c8.44,0,9.51-1.06,9.52-9.54q0-52.75,0-105.52v-6.84h6.06c11.67,0,23.33,0,35,0,5.33,0,7.38-2,7.41-7.15q.13-21.51,0-43c0-5.42-1.84-7.16-7.25-7.18-11.83-.06-23.66,0-35.49,0h-5.51c0-10.39-.32-20,.07-29.67.49-12,4.94-16.29,17.06-16.81,8.32-.36,16.66-.11,25-.2,5.9-.07,7.93-2,8-7.72q.14-19.5,0-39c0-5.45-2.17-7.45-7.74-7.47-13,0-26-.21-39,.12C73.38,1,48.72,22,44.08,53.13,42.14,66.22,42.83,79.7,42.36,93c-.08,2.45,0,4.91,0,7.94H36.89c-9.5,0-19,0-28.5,0-6.57,0-8.34,1.76-8.36,8.28,0,13.34,0,26.67,0,40,0,7.41,1.69,9.07,9.13,9.09C20,158.36,30.76,158.34,42.35,158.34Z"/><path class="cls-1" d="M42.35,158.34c-11.59,0-22.4,0-33.2,0-7.44,0-9.11-1.68-9.13-9.09,0-13.34,0-26.67,0-40,0-6.52,1.79-8.25,8.36-8.28,9.5,0,19,0,28.5,0h5.46c0-3-.07-5.49,0-7.94.47-13.31-.22-26.79,1.72-39.88C48.72,22,73.38,1,105,.2c13-.33,26-.16,39-.12,5.57,0,7.7,2,7.74,7.47q.15,19.5,0,39c0,5.77-2.07,7.65-8,7.72-8.33.09-16.67-.16-25,.2-12.12.52-16.57,4.83-17.06,16.81-.39,9.63-.07,19.28-.07,29.67h5.51c11.83,0,23.66,0,35.49,0,5.41,0,7.22,1.76,7.25,7.18q.13,21.51,0,43c0,5.16-2.08,7.12-7.41,7.15-11.67.08-23.33,0-35,0h-6.06v6.84q0,52.77,0,105.52c0,8.48-1.08,9.54-9.52,9.54q-20.25,0-40.5,0c-7.47,0-9-1.55-9-9.18q0-52.77,0-105.52Z"/></g></g></svg>